<svg height="512pt" viewBox="0 0 512 512" width="512pt" xmlns="http://www.w3.org/2000/svg"><path d="m230.398438 8.535156h204.800781c18.851562 0 34.132812 15.28125 34.132812 34.132813v128h-273.066406v-128c0-18.851563 15.28125-34.132813 34.132813-34.132813zm0 0" fill="#c81e1e"/><path d="m230.398438 8.535156h179.203124c18.851563 0 34.132813 15.28125 34.132813 34.132813v128h-247.46875v-128c0-18.851563 15.28125-34.132813 34.132813-34.132813zm0 0" fill="#f44335"/><path d="m486.398438 503.464844h-315.730469c-4.714844 0-8.535157-3.820313-8.535157-8.53125v-298.667969h332.800782v298.667969c0 4.710937-3.820313 8.53125-8.535156 8.53125zm0 0" fill="#dfc49c"/><path d="m460.800781 503.464844h-290.132812c-4.714844 0-8.535157-3.820313-8.535157-8.53125v-298.667969h307.199219v298.667969c0 4.710937-3.820312 8.53125-8.53125 8.53125zm0 0" fill="#ffe0b2"/><path d="m307.199219 302.933594v89.601562c-.011719 4.707032-3.824219 8.519532-8.53125 8.53125h-93.867188c-4.707031-.011718-8.519531-3.824218-8.535156-8.53125v-89.601562c-.03125-9.675782 2.5-19.183594 7.339844-27.5625 2.464843-4.25 5.445312-8.175782 8.875-11.691406.582031-.613282 1.210937-1.183594 1.875-1.707032 7.246093-6.046875 15.71875-10.445312 24.832031-12.882812 4.09375-1.097656 8.3125-1.640625 12.546875-1.625 30.632813 0 55.464844 24.835937 55.464844 55.46875zm0 0" fill="#0377bc"/><path d="m281.601562 302.933594v89.601562c-.015624 4.707032-3.828124 8.519532-8.535156 8.53125h-68.265625c-4.707031-.011718-8.519531-3.824218-8.535156-8.53125v-89.601562c-.03125-9.675782 2.5-19.183594 7.339844-27.5625 2.464843-4.25 5.445312-8.175782 8.875-11.691406.582031-.613282 1.210937-1.183594 1.875-1.707032 7.246093-6.046875 15.71875-10.445312 24.832031-12.882812 24.882812 5.992187 42.414062 28.253906 42.414062 53.84375zm0 0" fill="#02a9f4"/><path d="m128 303.359375v148.90625h-119.464844v-148.90625c.726563-27.023437 20.324219-49.828125 46.929688-54.613281 4.214844-.859375 8.503906-1.289063 12.800781-1.28125 31.902344-.980469 58.597656 24 59.734375 55.894531zm0 0" fill="#c81e1e"/><path d="m102.398438 303.359375v148.90625h-93.863282v-148.90625c.726563-27.023437 20.324219-49.828125 46.929688-54.613281 26.609375 4.785156 46.207031 27.589844 46.933594 54.613281zm0 0" fill="#f44335"/><path d="m51.199219 366.933594h34.132812c4.714844 0 8.535157 3.820312 8.535157 8.53125v34.136718c0 4.710938-3.820313 8.53125-8.535157 8.53125h-34.132812c-4.710938 0-8.53125-3.820312-8.53125-8.53125v-34.136718c0-4.710938 3.820312-8.53125 8.53125-8.53125zm0 0" fill="#ffe0b2"/><path d="m162.132812 162.132812h332.800782c4.710937 0 8.53125 3.820313 8.53125 8.535157v25.597656c0 4.714844-3.820313 8.535156-8.53125 8.535156h-332.800782c-4.710937 0-8.53125-3.820312-8.53125-8.535156v-25.597656c0-4.714844 3.820313-8.535157 8.53125-8.535157zm0 0" fill="#c81e1e"/><path d="m273.066406 42.667969h119.46875c4.710938 0 8.53125 3.820312 8.53125 8.53125v68.265625c0 4.714844-3.820312 8.535156-8.53125 8.535156h-119.46875c-4.710937 0-8.53125-3.820312-8.53125-8.535156v-68.265625c0-4.710938 3.820313-8.53125 8.53125-8.53125zm0 0" fill="#fec108"/><path d="m273.066406 42.667969h93.867188c4.710937 0 8.53125 3.820312 8.53125 8.53125v68.265625c0 4.714844-3.820313 8.535156-8.53125 8.535156h-93.867188c-4.710937 0-8.53125-3.820312-8.53125-8.535156v-68.265625c0-4.710938 3.820313-8.53125 8.53125-8.53125zm0 0" fill="#ffdc00"/><path d="m398.25 44.886719-60.328125 47.1875c-2.996094 2.390625-7.246094 2.390625-10.242187 0l-10.496094-8.277344-49.835938-38.910156c1.566406-1.425781 3.605469-2.214844 5.71875-2.21875h119.46875c2.113282.003906 4.152344.792969 5.714844 2.21875zm0 0" fill="#fdd834"/><path d="m366.933594 44.886719-49.75 38.910156-49.835938-38.910156c1.566406-1.425781 3.605469-2.214844 5.71875-2.21875h88.148438c2.117187.003906 4.152344.792969 5.71875 2.21875zm0 0" fill="#ffeb3a"/><path d="m460.800781 256v247.464844h-119.46875v-247.464844c.015625-4.707031 3.828125-8.519531 8.535157-8.535156h102.398437c4.707031.015625 8.519531 3.828125 8.535156 8.535156zm0 0" fill="#c81e1e"/><path d="m435.199219 256v247.464844h-93.867188v-247.464844c.015625-4.707031 3.828125-8.519531 8.535157-8.535156h76.800781c4.707031.015625 8.519531 3.828125 8.53125 8.535156zm0 0" fill="#f44335"/><path d="m384 281.601562h34.132812c4.714844 0 8.535157 3.820313 8.535157 8.53125v34.132813c0 4.714844-3.820313 8.535156-8.535157 8.535156h-34.132812c-4.710938 0-8.535156-3.820312-8.535156-8.535156v-34.132813c0-4.710937 3.824218-8.53125 8.535156-8.53125zm0 0" fill="#0377bc"/><path d="m384 281.601562h8.535156c4.710938 0 8.53125 3.820313 8.53125 8.53125v34.132813c0 4.714844-3.820312 8.535156-8.53125 8.535156h-8.535156c-4.710938 0-8.535156-3.820312-8.535156-8.535156v-34.132813c0-4.710937 3.824218-8.53125 8.535156-8.53125zm0 0" fill="#02a9f4"/><path d="m486.398438 512h-315.730469c-9.421875-.011719-17.054688-7.644531-17.066407-17.066406v-290.132813c0-4.714843 3.820313-8.535156 8.53125-8.535156h332.800782c4.710937 0 8.53125 3.820313 8.53125 8.535156v290.132813c-.011719 9.421875-7.644532 17.054687-17.066406 17.066406zm-315.730469-298.667969v281.601563h315.730469v-281.601563zm0 0"/><path d="m460.800781 512h-119.46875c-4.710937 0-8.53125-3.820312-8.53125-8.535156v-247.464844c.011719-9.421875 7.644531-17.054688 17.066407-17.066406h102.398437c9.421875.011718 17.054687 7.644531 17.066406 17.066406v247.464844c0 4.714844-3.820312 8.535156-8.53125 8.535156zm-110.933593-17.066406h102.398437v-238.933594h-102.398437zm0 0"/><path d="m298.667969 409.601562h-93.867188c-9.421875-.015624-17.054687-7.648437-17.066406-17.066406v-89.601562c0-35.347656 28.652344-64 64-64 35.34375 0 64 28.652344 64 64v89.601562c-.015625 9.417969-7.648437 17.050782-17.066406 17.066406zm-46.933594-153.601562c-25.90625.03125-46.902344 21.027344-46.933594 46.933594v89.601562h93.867188v-89.601562c-.035157-25.90625-21.027344-46.902344-46.933594-46.933594zm0 0"/><path d="m304.726562 372.992188c-2.265624.003906-4.4375-.898438-6.035156-2.5l-31.660156-31.660157c-3.230469-3.347656-3.1875-8.667969.105469-11.960937 3.292969-3.292969 8.613281-3.339844 11.960937-.105469l31.660156 31.660156c2.4375 2.441407 3.167969 6.109375 1.847657 9.296875-1.320313 3.1875-4.429688 5.269532-7.878907 5.269532zm0 0"/><path d="m247.464844 315.734375c-2.261719 0-4.433594-.898437-6.03125-2.5l-38.996094-39c-2.21875-2.140625-3.109375-5.3125-2.328125-8.296875s3.109375-5.3125 6.09375-6.09375 6.15625.109375 8.300781 2.324219l38.996094 39c2.441406 2.4375 3.167969 6.109375 1.847656 9.296875-1.320312 3.1875-4.429687 5.269531-7.882812 5.269531zm0 0"/><path d="m418.132812 341.332031h-34.132812c-9.421875-.011719-17.054688-7.644531-17.066406-17.066406v-34.132813c.011718-9.417968 7.644531-17.054687 17.066406-17.066406h34.132812c9.421876.011719 17.054688 7.648438 17.066407 17.066406v34.132813c-.011719 9.421875-7.644531 17.054687-17.066407 17.066406zm-34.132812-51.199219v34.132813h34.132812v-34.132813zm0 0"/><path d="m426.667969 392.535156c-4.714844 0-8.535157-3.824218-8.535157-8.535156v-17.066406c0-4.714844 3.820313-8.535156 8.535157-8.535156 4.710937 0 8.53125 3.820312 8.53125 8.535156v17.066406c0 4.710938-3.820313 8.535156-8.53125 8.535156zm0 0"/><path d="m128 512c-4.710938 0-8.535156-3.820312-8.535156-8.535156v-196.265625c0-28.277344-22.921875-51.199219-51.199219-51.199219s-51.199219 22.921875-51.199219 51.199219v196.265625c0 4.714844-3.820312 8.535156-8.53125 8.535156-4.714844 0-8.535156-3.820312-8.535156-8.535156v-196.265625c0-37.703125 30.5625-68.265625 68.265625-68.265625s68.269531 30.5625 68.269531 68.265625v196.265625c0 4.714844-3.824218 8.535156-8.535156 8.535156zm0 0"/><path d="m128 460.800781h-119.464844c-4.714844 0-8.535156-3.820312-8.535156-8.535156 0-4.710937 3.820312-8.53125 8.535156-8.53125h119.464844c4.710938 0 8.535156 3.820313 8.535156 8.53125 0 4.714844-3.824218 8.535156-8.535156 8.535156zm0 0"/><path d="m85.332031 307.199219h-34.132812c-4.710938 0-8.53125-3.820313-8.53125-8.53125 0-4.714844 3.820312-8.535157 8.53125-8.535157h34.132812c4.714844 0 8.535157 3.820313 8.535157 8.535157 0 4.710937-3.820313 8.53125-8.535157 8.53125zm0 0"/><path d="m85.332031 426.667969h-34.132812c-9.417969-.015625-17.054688-7.648438-17.066407-17.066407v-34.136718c.011719-9.417969 7.648438-17.050782 17.066407-17.066406h34.132812c9.421875.015624 17.054688 7.648437 17.066407 17.066406v34.136718c-.011719 9.417969-7.644532 17.050782-17.066407 17.066407zm-34.132812-51.203125v34.136718h34.152343l-.019531-34.136718zm0 0"/><path d="m494.933594 213.332031h-332.800782c-9.417968-.011719-17.054687-7.644531-17.066406-17.066406v-25.597656c.011719-9.421875 7.648438-17.054688 17.066406-17.066407h332.800782c9.421875.011719 17.054687 7.644532 17.066406 17.066407v25.597656c-.011719 9.421875-7.644531 17.054687-17.066406 17.066406zm-332.800782-42.664062v25.597656h332.816407l-.015625-25.597656zm0 0"/><path d="m469.332031 170.667969h-273.066406c-4.710937 0-8.53125-3.820313-8.53125-8.535157v-119.464843c.027344-23.554688 19.113281-42.6406252 42.664063-42.667969h204.800781c23.554687.0273438 42.640625 19.113281 42.667969 42.667969v119.464843c0 4.714844-3.820313 8.535157-8.535157 8.535157zm-264.53125-17.066407h256v-110.933593c-.015625-14.132813-11.46875-25.585938-25.601562-25.601563h-204.800781c-14.128907.015625-25.582032 11.46875-25.597657 25.601563zm0 0"/><path d="m392.535156 136.535156h-119.46875c-9.421875-.015625-17.054687-7.648437-17.066406-17.070312v-68.265625c.011719-9.417969 7.644531-17.054688 17.066406-17.066407h119.46875c9.417969.011719 17.050782 7.648438 17.066406 17.066407v68.265625c-.015624 9.421875-7.648437 17.054687-17.066406 17.070312zm-119.46875-85.335937v68.265625h119.484375l-.015625-68.265625zm0 0"/><path d="m332.800781 102.425781c-3.765625-.015625-7.414062-1.292969-10.367187-3.625l-60.339844-47.191406c-2.40625-1.878906-3.621094-4.894531-3.195312-7.914063.425781-3.019531 2.429687-5.585937 5.257812-6.726562s6.050781-.6875 8.453125 1.191406l60.328125 47.1875 60.050781-47.1875c3.714844-2.902344 9.078125-2.246094 11.984375 1.46875 2.902344 3.710938 2.246094 9.078125-1.46875 11.980469l-60.328125 47.191406c-2.957031 2.332031-6.609375 3.609375-10.375 3.625zm0 0"/><path d="m281.601562 443.734375h-85.335937c-4.710937 0-8.53125-3.820313-8.53125-8.535156 0-4.710938 3.820313-8.53125 8.53125-8.53125h85.335937c4.710938 0 8.53125 3.820312 8.53125 8.53125 0 4.714843-3.820312 8.535156-8.53125 8.535156zm0 0"/></svg>