<svg id="Capa_1" enable-background="new 0 0 512 512" height="512" viewBox="0 0 512 512" width="512" xmlns="http://www.w3.org/2000/svg"><g><g><path d="m115.119 325.028c-3.904-3.187-7.991-5.981-12.206-8.38l-51.471 23.802-13.019 55.193c3.193 3.65 6.749 7.094 10.653 10.282 28.348 23.142 66.191 25.509 92.517 8.129 11.767-29.279 1.874-65.883-26.474-89.026z" fill="#4f4c5f"/><path d="m44.311 307.554c-15.143 3.634-26.003 16.937-26.529 32.501-.654 19.329 6.469 39.44 20.642 55.59 2.613-11.255 11.212-20.376 22.615-23.496 6.556-1.78 12.182-5.556 16.282-10.578 4.093-5.014 6.66-11.274 7.099-18.062.447-6.781 3.014-13.041 7.107-18.055 3.037-3.721 6.909-6.761 11.387-8.805-18.661-10.655-39.793-13.608-58.603-9.095z" fill="#eaeaea"/><path d="m408.406 341.77h.01c13.452 36.779 18.495 90.045-29.174 140.808-13.181 14.045-31.646 21.921-50.894 21.921h-117.36c-19.249 0-37.714-7.876-50.894-21.921-47.68-50.774-42.616-104.049-29.164-140.828v.02z" fill="#6a647f"/><path d="m155.735 403.82c0-22.012 4.466-42.98 12.54-62.05h-37.347v-.02c-13.452 36.779-18.515 90.055 29.164 140.828 7.946 8.467 17.82 14.673 28.621 18.282-20.675-26.869-32.978-60.515-32.978-97.04z" fill="#5c586f"/><path d="m408.416 341.77h-.01c-43.39 52.833-69.028 33.283-118.636 58.57-12.608 6.43-27.597 6.43-40.205 0-49.608-25.286-75.246-5.736-118.636-58.57v-.02c10.398-28.421 25.809-46.996 25.809-46.996h225.86c-.001 0 15.42 18.585 25.818 47.016z" fill="#e2e2e2"/><path d="m170.897 48.827c-11.972-5.048-25.621-7.717-40.12-7.717-47.333 0-85.703 28.324-85.703 75.657s20.287 95.749 67.62 95.749c1.519 0 3.048-.052 4.584-.15z" fill="#4f4c5f"/><path d="m368.436 48.827c11.972-5.048 25.621-7.717 40.12-7.717 47.333 0 85.703 28.324 85.703 75.657s-20.287 95.749-67.62 95.749c-1.519 0-3.048-.052-4.584-.15z" fill="#4f4c5f"/><path d="m421.998 178.006c4.3 43.108-7.083 75.789-25.307 100.432h-254.05c-18.224-24.643-29.606-57.324-25.306-100.432z" fill="#e8a882"/><path d="m144.155 203.109c0-8.512.572-16.889 1.662-25.103h-28.482c-4.3 43.108 7.083 75.789 25.306 100.432h17.129c-10.037-23.082-15.615-48.552-15.615-75.329z" fill="#e3986d"/><path d="m421.998 178.006c-36.428 27.527-91.15 45.037-152.331 45.037s-115.904-17.511-152.331-45.037c.362-3.637.834-7.344 1.427-11.121 26.511-169.862 150.904-159.253 150.904-159.253s124.393-10.609 150.905 159.253c.592 3.777 1.065 7.484 1.426 11.121z" fill="#6a647f"/><path d="m198.949 294.753h-42.212s-15.411 18.576-25.809 46.997v.02c10.381 12.641 19.745 21.131 28.665 27.09 6.335-28.281 20.189-53.718 39.356-74.107z" fill="#d4d4d2"/><path d="m396.692 278.438c-23.237 31.445-57.595 49.829-84.72 60.157-27.276 10.388-57.334 10.388-84.609 0-27.125-10.328-61.483-28.712-84.72-60.157 7.083-55.877 29.857-59.413 63.623-88.899 27.667-24.151 38.216-61.895 42.144-84.037.924-5.164 3.617-9.624 7.384-12.799 3.777-3.175 8.63-5.063 13.874-5.063 10.488 0 19.419 7.545 21.258 17.862 3.928 22.142 14.477 59.886 42.144 84.037 33.764 29.486 56.539 33.022 63.622 88.899z" fill="#eaeaea"/><path d="m334.953 99.361 15.158-4.423c8.737-2.549 17.881 2.379 20.582 11.029 2.785 8.92-2.692 18.484-11.663 21.102l-14.737 4.3c-8.839 2.579-18.094-2.496-20.674-11.334-2.58-8.838 2.495-18.095 11.334-20.674z" fill="#e8a882"/><path d="m149.586 248.224c-3.046 8.08-5.379 17.868-6.944 30.214 10.752 14.55 23.886 26.298 37.581 35.751-14.184-19.505-24.727-41.824-30.637-65.965z" fill="#e2e2e2"/><path d="m315.427 14.867c-25.713-8.942-45.76-7.235-45.76-7.235s-124.393-10.609-150.905 159.253c-.593 3.777-1.065 7.484-1.427 11.121 8.133 6.146 17.184 11.788 27.009 16.852 4.067-94.653 77.709-171.265 171.083-179.991z" fill="#5c586f"/><path d="m204.381 99.361-15.158-4.423c-8.737-2.549-17.881 2.379-20.582 11.029-2.785 8.92 2.692 18.484 11.663 21.102l14.737 4.3c8.839 2.579 18.094-2.496 20.674-11.334 2.58-8.838-2.495-18.095-11.334-20.674z" fill="#e8a882"/></g><g><path d="m178.256 134.52 14.728 4.297c12.811 3.739 26.231-3.662 29.954-16.422 3.739-12.815-3.605-26.216-16.423-29.955l-15.148-4.42c-12.548-3.661-25.927 3.509-29.822 15.984-4.069 13.037 3.841 26.761 16.711 30.516zm-2.401-26.049c1.475-4.724 6.545-7.452 11.314-6.06l15.148 4.419c4.863 1.419 7.65 6.502 6.231 11.366-1.416 4.851-6.513 7.647-11.366 6.231l-14.728-4.297c-4.905-1.431-8.139-6.727-6.599-11.659z"/><path d="m346.333 138.817 14.728-4.297c12.9-3.764 20.772-17.507 16.71-30.516-3.894-12.474-17.272-19.644-29.821-15.984l-15.148 4.42c-12.815 3.738-20.163 17.137-16.423 29.955 3.725 12.766 17.147 20.158 29.954 16.422zm-9.333-31.987 15.147-4.419c7.603-2.217 14.46 5.703 10.588 12.925-1.245 2.321-3.385 4.069-5.873 4.795l-14.728 4.297c-4.849 1.415-9.949-1.38-11.366-6.231-1.417-4.864 1.368-9.948 6.232-11.367z"/><path d="m269.849 196.657c10.525 0 19.057-5.601 19.057-12.509 0-10.873-38.113-10.873-38.113 0-.001 6.908 8.531 12.509 19.056 12.509z"/><path d="m184.401 147.386c-4.139 0-7.495 3.356-7.495 7.495v16.383c0 4.139 3.356 7.495 7.495 7.495s7.495-3.356 7.495-7.495v-16.383c0-4.139-3.355-7.495-7.495-7.495z"/><path d="m354.916 147.386c-4.139 0-7.495 3.356-7.495 7.495v16.383c0 4.139 3.356 7.495 7.495 7.495s7.495-3.356 7.495-7.495v-16.383c0-4.139-3.356-7.495-7.495-7.495z"/><path d="m253.72 234.063c6.237 0 11.914-2.432 16.143-6.393 4.228 3.961 9.905 6.393 16.142 6.393 13.034 0 23.638-10.603 23.638-23.637 0-4.139-3.356-7.495-7.495-7.495s-7.495 3.356-7.495 7.495c0 4.768-3.879 8.647-8.648 8.647-4.768 0-8.647-3.879-8.647-8.647 0-4.139-3.356-7.495-7.495-7.495s-7.495 3.356-7.495 7.495c0 4.768-3.879 8.647-8.648 8.647-4.768 0-8.647-3.879-8.647-8.647 0-4.139-3.356-7.495-7.495-7.495-14.679 0-7.035 31.132 16.142 31.132z"/><path d="m120.281 431.058c5.932 18.616 16.702 37.811 34.411 56.67 14.477 15.425 35.007 24.272 56.325 24.272h117.283c21.319 0 41.849-8.847 56.325-24.271 9.629-10.255 17.66-21.148 23.867-32.376 2.003-3.623.689-8.183-2.933-10.186-3.623-2.003-8.184-.69-10.186 2.933-5.605 10.14-12.898 20.02-21.677 29.369-21.075 22.456-48.195 19.255-49.72 19.54 20.979-33.264 17.969-58.109 17.813-59.268-.554-4.102-4.335-7.005-8.435-6.451-4.102.554-6.982 4.301-6.427 8.404.008.065.749 6.615-1.719 17.231-2.161 9.294-7.282 23.596-19.352 40.085h-28.702v-58.264c0-4.139-3.356-7.495-7.495-7.495s-7.495 3.356-7.495 7.495v58.264h-28.702c-12.07-16.489-17.191-30.791-19.352-40.085-2.439-10.491-1.744-17.011-1.72-17.226.524-4.083-2.345-7.829-6.43-8.381-4.103-.555-7.877 2.322-8.431 6.424-.156 1.159-3.166 26.004 17.813 59.268-1.485-.278-28.555 3.011-49.721-19.542-32.51-34.619-43.885-75.635-31.498-120.703 40.229 42.481 67.558 27.652 112.042 50.326 14.574 7.433 32.239 7.522 46.987.001 44.231-22.545 72.25-8.256 112.064-50.349 6.248 22.707 6.512 44.692.763 65.511-1.102 3.99 1.24 8.118 5.23 9.219 3.989 1.101 8.118-1.239 9.219-5.23 11.691-42.341.026-86.557-22.565-122.497-2.173-3.457-3.969-6.176-5.485-8.326 3.586-3.889 7.021-8.005 10.249-12.374.001-.001.001-.002.002-.003 13.764-18.615 22.413-39.655 25.897-62.865 50.454-1.317 73.071-52.457 73.071-103.15 0-51.667-41.857-83.102-93.141-83.102-13.63 0-26.48 2.17-38.277 6.452-55.813-53.798-144.985-53.891-200.962.029-57.133-20.786-131.497 7.2-131.497 76.623 0 50.693 22.617 101.832 73.071 103.15 3.484 23.211 12.133 44.251 25.898 62.866 0 0 .001.001.002.002 3.241 4.386 6.692 8.518 10.293 12.421-4.393 6.151-11.641 17.306-18.221 32.036-6.518-6.829-13.948-12.636-22.03-17.235 0 0 0 0-.001 0 0 0 0 0-.001 0-.659-.227-28.842-18.311-64.028-9.867-18.353 4.404-31.616 20.652-32.254 39.514-1.917 56.691 54.521 103.287 109.832 91.141zm279.46-90.633c-39.755 46.341-63.396 27.825-113.398 53.313-10.447 5.328-22.921 5.328-33.37-.001-49.561-25.258-73.807-7.154-113.395-53.306 6.068-15.32 13.489-27.353 18.229-34.257 21.036 18.934 49.189 33.848 72.375 41.483 12.831 4.226 26.152 6.338 39.477 6.338 39.082 0 84.242-22.966 111.86-47.828 4.733 6.88 12.136 18.881 18.222 34.258zm-275.665-148.425c12.87 8.302 27.005 15.158 41.628 20.67-12.064 10.703-21.367 23.067-26.925 45.653-10.882-20.566-15.272-43.06-14.703-66.323zm87.152 3.4c24.909-21.743 38.815-55.878 44.565-88.307 1.222-6.829 7.123-11.676 13.866-11.676 6.829 0 12.66 4.908 13.864 11.665 5.784 32.592 19.728 66.635 44.566 88.318 33.362 29.125 53.768 31.798 60.669 81.136-4.182 5.391-8.719 10.362-13.486 14.945-.084.081-.166.161-.25.242-25.971 24.848-70.171 48.107-107.878 47.252-35.829-.813-78.718-24.168-102.845-47.25-.086-.082-.171-.166-.257-.249-4.766-4.581-9.301-9.55-13.481-14.939 6.897-49.32 27.295-51.996 60.667-81.137zm204.014-3.4c.567 23.384-3.849 45.809-14.704 66.323-5.558-22.586-14.861-34.951-26.925-45.653 14.211-5.338 28.559-12.25 41.629-20.67zm71.366-74.97c0 40.765-15.989 85.697-56.561 88.089 2.524-48.274-16.534-114.349-48.583-152.633 47.056-13.216 105.144 8.705 105.144 64.544zm-377.338 88.088c-17.559-1.034-31.543-9.905-41.607-26.41-9.643-15.814-14.953-37.719-14.953-61.679 0-54.729 56.755-78.141 105.147-64.543-12.882 15.41-22.793 33.241-30.114 51.693-1.527 3.848.354 8.204 4.202 9.731s.001 0 .001 0c3.848 1.527 8.204-.355 9.731-4.202 8.065-20.318 19.308-39.549 34.654-55.354.226-.233.433-.48.625-.736 43.843-44.544 109.039-48.11 155.293-22.767 50.429 27.63 74.656 86.668 81.703 143.908-16.438 11.761-34.577 20.309-54.041 26.862-14.073-10.74-23.401-17.806-31.07-26.709-19.545-22.69-27.47-53.043-30.559-70.455-2.481-13.924-14.519-24.03-28.623-24.03-14.356 0-26.192 10.457-28.624 24.036-2.868 16.164-9.906 43.49-26.545 65.478-9.291 12.276-18.668 19.153-35.083 31.68-19.318-6.464-37.737-15.195-54.041-26.862 1.434-11.769 4.299-26.035 7.337-37.546.925-3.503-.789-7.081-3.914-8.628-4.26-2.111-9.374.218-10.583 4.801-6.03 22.85-10.19 48.325-8.936 71.732zm13.325 138.079c-8.056 23.807-10.798 48.669-6.021 73.345-23.407 4.964-50.377-2.967-69.56-22.716 2.779-6.896 8.31-12.073 16.119-14.35 16.288-4.423 27.804-18.715 28.88-35.361.486-7.376 4.244-14.263 10.835-18.683 7.497 4.798 14.226 10.849 19.747 17.765zm-97.164-2.774c.411-12.145 8.952-22.608 20.77-25.444.434-.032 18.845-5.689 42.091 3.12-6.371 6.454-10.588 15.207-11.237 25.039-.678 10.48-7.963 19.186-17.864 21.875-14.358 3.925-21.413 14.728-21.314 14.631-.332.452-.656.911-.969 1.378-7.839-12.406-11.948-26.696-11.477-40.599z"/></g></g></svg>