<svg id="Capa_1" enable-background="new 0 0 512 512" height="512" viewBox="0 0 512 512" width="512" xmlns="http://www.w3.org/2000/svg"><g><path d="m7.5 38.815h371.74v434.37h-371.74z" fill="#ecc373"/><path d="m68.11 372.169h40.407v96.976h-40.407z" fill="#ccf49f" transform="matrix(0 1 -1 0 508.97 332.344)"/><path d="m379.24 38.815h125.26v434.37h-125.26z" fill="#dab46b"/><path d="m340.854 225.695h202.033v60.61h-202.033z" fill="#ccf49f" transform="matrix(0 1 -1 0 697.87 -185.87)"/><path d="m238.827 38.815v111.118l-45.457-20.203-45.457 20.203v-111.118z" fill="#f4e2c1"/><path d="m478.236 38.815h26.264v434.37h-26.264z" fill="#cba763"/><g><path d="m39.825 448.36h96.976c4.143 0 7.5-3.358 7.5-7.5v-40.407c0-4.142-3.357-7.5-7.5-7.5h-96.976c-4.143 0-7.5 3.358-7.5 7.5v40.407c0 4.142 3.358 7.5 7.5 7.5zm7.5-40.407h81.976v25.407h-81.976z"/><path d="m411.565 147.484c-4.143 0-7.5 3.358-7.5 7.5v202.032c0 4.142 3.357 7.5 7.5 7.5h60.609c4.143 0 7.5-3.358 7.5-7.5v-202.032c0-4.142-3.357-7.5-7.5-7.5zm53.11 202.032h-45.609v-187.032h45.609z"/><path d="m43.31 465.68h-28.31v-419.36h125.413v103.613c0 2.539 1.284 4.905 3.413 6.289 2.128 1.384 4.813 1.595 7.133.565l42.411-18.85 42.411 18.85c.974.433 2.012.646 3.046.646 1.429 0 2.852-.409 4.087-1.211 2.129-1.383 3.413-3.75 3.413-6.289v-103.613h43.903c4.143 0 7.5-3.358 7.5-7.5s-3.357-7.5-7.5-7.5h-282.73c-4.143 0-7.5 3.358-7.5 7.5v434.36c0 4.142 3.357 7.5 7.5 7.5h35.81c4.143 0 7.5-3.358 7.5-7.5s-3.358-7.5-7.5-7.5zm188.017-327.288-34.911-15.516c-1.939-.862-4.152-.862-6.092 0l-34.911 15.516v-92.072h75.914z"/><path d="m504.5 356.2c4.143 0 7.5-3.358 7.5-7.5v-309.88c0-4.142-3.357-7.5-7.5-7.5h-179.27c-4.143 0-7.5 3.358-7.5 7.5s3.357 7.5 7.5 7.5h46.51v419.36h-293.43c-4.143 0-7.5 3.358-7.5 7.5s3.357 7.5 7.5 7.5h426.19c4.143 0 7.5-3.358 7.5-7.5v-89.48c0-4.142-3.357-7.5-7.5-7.5s-7.5 3.358-7.5 7.5v81.98h-110.26v-419.36h110.26v302.38c0 4.142 3.357 7.5 7.5 7.5z"/><path d="m55.988 375.628c4.143 0 7.5-3.358 7.5-7.5v-24.32l3.358 3.359c1.465 1.465 3.384 2.197 5.304 2.197 1.919 0 3.839-.732 5.304-2.197 2.929-2.929 2.929-7.677 0-10.606l-16.162-16.163c-1.407-1.407-3.314-2.197-5.304-2.197s-3.896.79-5.304 2.197l-16.162 16.163c-2.93 2.929-2.93 7.677-.001 10.606s7.678 2.929 10.606 0l3.36-3.36v24.321c.001 4.142 3.359 7.5 7.501 7.5z"/><path d="m142.104 336.561-16.162-16.163c-1.407-1.407-3.314-2.197-5.304-2.197s-3.896.79-5.304 2.197l-16.162 16.163c-2.93 2.929-2.93 7.677-.001 10.606s7.678 2.929 10.606 0l3.36-3.36v24.321c0 4.142 3.357 7.5 7.5 7.5s7.5-3.358 7.5-7.5v-24.32l3.358 3.359c1.465 1.465 3.384 2.197 5.304 2.197 1.919 0 3.839-.732 5.304-2.197 2.93-2.929 2.93-7.677.001-10.606z"/></g></g></svg>